<svg width="126" height="24" viewBox="0 0 126 24" fill="none" xmlns="http://www.w3.org/2000/svg">
<path fill-rule="evenodd" clip-rule="evenodd" d="M16.9446 0V8.18101H7.05497V0.00212627H0V24H7.05497V15.5234H16.9446V23.9957H24V0H16.9446Z" fill="#11A683"/>
<path fill-rule="evenodd" clip-rule="evenodd" d="M34.432 0.00212623V0H56.4723V0.00212623H57.7143V23.9979H50.7137V18.8023H40.7152V24H33.7143V0.00212623H34.432ZM50.7137 11.7121H40.7152V6.81456H50.7137V11.7121Z" fill="#11A683"/>
<path fill-rule="evenodd" clip-rule="evenodd" d="M68.7177 0.00212623V0H90.758V0.00212623H92V23.9979H84.9994V18.8023H75.0009V24H68V0.00212623H68.7177ZM84.9994 11.7121H75.0009V6.81456H84.9994V11.7121Z" fill="#11A683"/>
<rect x="118.857" y="11.4286" width="6.85714" height="6.85714" fill="#11A683"/>
<rect x="101.714" width="24" height="6.85714" fill="#11A683"/>
<rect x="101.714" y="17.1429" width="24" height="6.85714" fill="#11A683"/>
<rect x="101.714" y="6.85715" width="6.85714" height="8" fill="#11A683"/>
<rect x="108.571" y="9.14288" width="17.1429" height="5.71429" fill="#11A683"/>
</svg>
